<svg xmlns="http://www.w3.org/2000/svg" version="1.1" xmlns:xlink="http://www.w3.org/1999/xlink" width="512" height="512" x="0" y="0" viewBox="0 0 64 64" style="enable-background:new 0 0 512 512" xml:space="preserve" class=""><g><path d="M53.996 55.999a1.99 1.99 0 0 1-1.414-.586L39.31 42.141a2 2 0 1 1 2.828-2.828L55.41 52.585a2 2 0 0 1-1.414 3.414z" fill="#ddd" opacity="1" data-original="#ddd"></path><path d="M27.875 47.984h-.001c-1.792 0-3.571-.245-5.289-.727C12.726 44.493 6.465 34.426 8.33 24.34c1.723-9.315 10.204-16.339 19.727-16.339.596 0 1.198.028 1.792.082 10.176.936 18.148 9.684 18.148 19.916 0 2.446-.437 4.835-1.298 7.102-2.928 7.706-10.493 12.883-18.824 12.883zm.182-35.983c-7.625 0-14.415 5.617-15.793 13.066-1.493 8.071 3.515 16.126 11.401 18.338a15.6 15.6 0 0 0 4.209.578c6.681 0 12.743-4.141 15.084-10.305a15.937 15.937 0 0 0 1.038-5.681c0-8.186-6.375-15.184-14.514-15.932a16.155 16.155 0 0 0-1.425-.064z" fill="#ddd" opacity="1" data-original="#ddd"></path><path d="M35.996 29.999h-16a2 2 0 0 1 0-4h16a2 2 0 0 1 0 4z" fill="#ddd" opacity="1" data-original="#ddd"></path></g></svg>