<svg xmlns="http://www.w3.org/2000/svg" version="1.1" xmlns:xlink="http://www.w3.org/1999/xlink" width="512" height="512" x="0" y="0" viewBox="0 0 24 24" style="enable-background:new 0 0 512 512" xml:space="preserve"><g><path d="M20 20.8c-.2 0-.4-.1-.5-.2L14.9 16c-1.4 1.1-3.1 1.8-4.9 1.8-4.3 0-7.8-3.5-7.8-7.8S5.7 2.3 10 2.3s7.8 3.5 7.8 7.8c0 1.8-.6 3.5-1.8 4.9l4.5 4.5c.3.3.3.8 0 1.1-.1.1-.3.2-.5.2zm-10-17c-3.4 0-6.3 2.8-6.3 6.3s2.8 6.3 6.3 6.3c1.7 0 3.2-.7 4.4-1.8 1.2-1.2 1.8-2.8 1.8-4.4.1-3.6-2.8-6.4-6.2-6.4zm0 10c-.4 0-.8-.3-.8-.8v-2.3H7c-.4 0-.8-.3-.8-.8s.4-.6.8-.6h2.3V7c0-.4.3-.8.8-.8s.8.3.8.8v2.3H13c.4 0 .8.3.8.8s-.3.8-.8.8h-2.3V13c.1.4-.3.8-.7.8z" fill="#ddd" opacity="1" data-original="#ddd"></path></g></svg>