<svg xmlns="http://www.w3.org/2000/svg" version="1.1" xmlns:xlink="http://www.w3.org/1999/xlink" width="512" height="512" x="0" y="0" viewBox="0 0 1.707 1.707" style="enable-background:new 0 0 512 512" xml:space="preserve" fill-rule="evenodd" class=""><g><path d="M.943 1.643h-.18c-.046 0-.082-.033-.095-.087l-.01-.047a.712.712 0 0 1-.302-.174l-.046.014c-.053.016-.1.001-.123-.04l-.09-.154c-.023-.04-.012-.089.028-.126L.161.996a.716.716 0 0 1 0-.348L.125.615C.085.577.074.529.097.488l.09-.155C.21.293.257.278.31.295l.046.014A.719.719 0 0 1 .44.239a.04.04 0 1 1 .047.066.638.638 0 0 0-.09.077.04.04 0 0 1-.04.01L.286.371C.285.371.263.364.257.373l-.09.155C.161.538.178.554.18.556l.053.05a.04.04 0 0 1 .01.04.635.635 0 0 0 0 .352.04.04 0 0 1-.01.04l-.053.05c-.002 0-.02.017-.014.027l.09.155c.006.01.028.003.03.002l.07-.02a.04.04 0 0 1 .04.01.633.633 0 0 0 .305.175.04.04 0 0 1 .03.03l.015.07c.001.003.006.026.018.026h.13a.35.35 0 1 1 .597-.362l.05-.086c.005-.01-.012-.026-.014-.028l-.053-.05a.04.04 0 0 1-.011-.04.635.635 0 0 0 0-.351.04.04 0 0 1 .011-.04l.053-.05c.002-.002.019-.018.013-.028L1.45.373C1.446.363 1.424.37 1.42.371l-.07.021a.04.04 0 0 1-.04-.01.633.633 0 0 0-.304-.176.04.04 0 0 1-.03-.03L.96.106C.96.103.954.08.943.08h-.18C.754.08.748.103.747.106L.73.176a.04.04 0 0 1-.03.03.632.632 0 0 0-.09.03.04.04 0 0 1-.03-.074.712.712 0 0 1 .078-.027l.01-.047C.681.034.718 0 .764 0h.179c.046 0 .083.034.095.088l.011.047a.712.712 0 0 1 .301.174l.046-.014c.053-.017.1-.002.124.038l.09.155c.023.04.012.09-.029.127l-.035.033a.717.717 0 0 1 0 .348l.035.032c.041.038.052.087.029.127l-.09.155a.1.1 0 0 1-.007.01.04.04 0 0 1-.07-.016A.27.27 0 1 0 1 1.56a.04.04 0 0 1 0 .061.088.088 0 0 1-.058.021z" fill="#0ca37a" opacity="1" data-original="#0ca37a"></path><path d="M.853 1.33a.508.508 0 1 1 .44-.253.04.04 0 0 1-.046.018.272.272 0 0 0-.334.202.04.04 0 0 1-.037.032.52.52 0 0 1-.023 0zm0-.936a.428.428 0 0 0-.01.855.353.353 0 0 1 .394-.238.428.428 0 0 0-.384-.617z" fill="#0ca37a" opacity="1" data-original="#0ca37a"></path><path d="M.78.862H.596a.04.04 0 1 1 0-.08H.74V.69H.595a.04.04 0 1 1 0-.08H.78a.04.04 0 0 1 .04.04v.172a.04.04 0 0 1-.04.04z" fill="#0ca37a" opacity="1" data-original="#0ca37a"></path><path d="M.78 1.033H.596a.04.04 0 0 1-.04-.04V.822a.04.04 0 0 1 .04-.04H.78a.04.04 0 1 1 0 .08H.635v.091H.78a.04.04 0 1 1 0 .08zM1.112.876H.926a.04.04 0 0 1-.04-.04V.65a.04.04 0 1 1 .08 0v.146h.106V.65a.04.04 0 1 1 .08 0v.186a.04.04 0 0 1-.04.04z" fill="#0ca37a" opacity="1" data-original="#0ca37a"></path><path d="M1.112 1.033a.04.04 0 0 1-.04-.04V.836a.04.04 0 1 1 .08 0v.157a.04.04 0 0 1-.04.04z" fill="#0ca37a" opacity="1" data-original="#0ca37a"></path><path d="M1.177 1.706a.35.35 0 1 1 .314-.195.04.04 0 0 1-.072-.035.27.27 0 1 0-.097.108.04.04 0 0 1 .044.067.35.35 0 0 1-.189.055z" fill="#0ca37a" opacity="1" data-original="#0ca37a"></path><path d="M1.177 1.436a.04.04 0 0 1-.04-.04v-.198a.04.04 0 1 1 .08 0v.198a.04.04 0 0 1-.04.04zM1.177 1.554a.04.04 0 0 1-.04-.04V1.49a.04.04 0 1 1 .08 0v.024a.04.04 0 0 1-.04.04z" fill="#0ca37a" opacity="1" data-original="#0ca37a"></path></g></svg>