<svg xmlns="http://www.w3.org/2000/svg" version="1.1" xmlns:xlink="http://www.w3.org/1999/xlink" width="512" height="512" x="0" y="0" viewBox="0 0 25 25" style="enable-background:new 0 0 512 512" xml:space="preserve" class=""><g><path d="M20.7 2.5h-.8V1.3c0-.6-.4-1-1-1s-1 .4-1 1v1.2h-2.3V1.3c0-.6-.4-1-1-1s-1 .4-1 1v1.2h-2.3V1.3c0-.6-.4-1-1-1s-1 .4-1 1v1.2H7.1V1.3c0-.6-.4-1-1-1s-1 .4-1 1v1.2h-.8C2.2 2.5.5 4.2.5 6.3v14.6c0 2.1 1.7 3.8 3.8 3.8h16.4c2.1 0 3.8-1.7 3.8-3.8V6.3c0-.8-.2-1.5-.7-2.1-.6-1.1-1.8-1.7-3.1-1.7zm1.8 18.4c0 1-.8 1.8-1.8 1.8H4.3c-1 0-1.8-.8-1.8-1.8V9.3h20z" fill="#fff" opacity="1" data-original="#fff" class=""></path><path d="M5.4 15.1H8c.3 0 .6-.3.6-.6v-2.6c0-.3-.3-.6-.6-.6H5.4c-.3 0-.6.3-.6.6v2.6c-.1.3.2.6.6.6zM11.2 15.1h2.6c.3 0 .6-.3.6-.6v-2.6c0-.3-.3-.6-.6-.6h-2.6c-.3 0-.6.3-.6.6v2.6c0 .3.3.6.6.6zM17 15.1h2.6c.3 0 .6-.3.6-.6v-2.6c0-.3-.3-.6-.6-.6H17c-.3 0-.6.3-.6.6v2.6c0 .3.3.6.6.6zM5.4 21H8c.3 0 .6-.3.6-.6v-2.6c0-.3-.3-.6-.6-.6H5.4c-.3 0-.6.3-.6.6v2.6c-.1.3.2.6.6.6zM11.2 21h2.6c.3 0 .6-.3.6-.6v-2.6c0-.3-.3-.6-.6-.6h-2.6c-.3 0-.6.3-.6.6v2.6c0 .3.3.6.6.6zM17 21h2.6c.3 0 .6-.3.6-.6v-2.6c0-.3-.3-.6-.6-.6H17c-.3 0-.6.3-.6.6v2.6c0 .3.3.6.6.6z" fill="#fff" opacity="1" data-original="#fff" class=""></path></g></svg>