<svg xmlns="http://www.w3.org/2000/svg" version="1.1" xmlns:xlink="http://www.w3.org/1999/xlink" width="512" height="512" x="0" y="0" viewBox="0 0 682.667 682.667" style="enable-background:new 0 0 512 512" xml:space="preserve" class=""><g><defs><clipPath id="a" clipPathUnits="userSpaceOnUse"><path d="M0 512h512V0H0Z" fill="#0ca37a" opacity="1" data-original="#0ca37a"></path></clipPath></defs><g clip-path="url(#a)" transform="matrix(1.33333 0 0 -1.33333 0 682.667)"><path d="M0 0v29.225c0 8.929 7.315 16.213 16.247 16.213h112.591c8.932 0 16.218-7.284 16.218-16.213V0c0-8.929-7.286-16.242-16.218-16.242H16.247C7.315-16.242 0-8.929 0 0Z" style="stroke-width:20;stroke-linecap:round;stroke-linejoin:round;stroke-miterlimit:10;stroke-dasharray:none;stroke-opacity:1" transform="translate(292.055 26.242)" fill="none" stroke="#0ca37a" stroke-width="20" stroke-linecap="round" stroke-linejoin="round" stroke-miterlimit="10" stroke-dasharray="none" stroke-opacity="" data-original="#0ca37a" class=""></path><path d="M0 0v83.025c0 29.423 18.6 51.958 39.894 73.048l26.34 26.05c10.349 10.261 27.162 10.204 37.427-.114 10.263-10.318 10.178-27.127-.114-37.416L63.2 104.341" style="stroke-width:20;stroke-linecap:round;stroke-linejoin:round;stroke-miterlimit:10;stroke-dasharray:none;stroke-opacity:1" transform="translate(313.547 71.68)" fill="none" stroke="#0ca37a" stroke-width="20" stroke-linecap="round" stroke-linejoin="round" stroke-miterlimit="10" stroke-dasharray="none" stroke-opacity="" data-original="#0ca37a" class=""></path><path d="M0 0v24.236c0 20.267 11.228 34.667 39.582 60.121 22.427 20.154 38.333 34.81 34.08 66.812L57.359 292.388c-1.616 13.975-12.759 24.973-26.794 24.264-14.035-.68-23.647-12.727-24.271-26.787L1.56 182.009" style="stroke-width:20;stroke-linecap:round;stroke-linejoin:round;stroke-miterlimit:10;stroke-dasharray:none;stroke-opacity:1" transform="translate(415.648 71.68)" fill="none" stroke="#0ca37a" stroke-width="20" stroke-linecap="round" stroke-linejoin="round" stroke-miterlimit="10" stroke-dasharray="none" stroke-opacity="" data-original="#0ca37a" class=""></path><path d="M0 0v29.225c0 8.929-7.315 16.213-16.218 16.213h-112.62c-8.903 0-16.218-7.284-16.218-16.213V0c0-8.929 7.315-16.242 16.218-16.242h112.62C-7.315-16.242 0-8.929 0 0Z" style="stroke-width:20;stroke-linecap:round;stroke-linejoin:round;stroke-miterlimit:10;stroke-dasharray:none;stroke-opacity:1" transform="translate(219.924 26.242)" fill="none" stroke="#0ca37a" stroke-width="20" stroke-linecap="round" stroke-linejoin="round" stroke-miterlimit="10" stroke-dasharray="none" stroke-opacity="" data-original="#0ca37a" class=""></path><path d="M0 0v24.236c0 20.267-11.228 34.667-39.581 60.121-22.428 20.154-38.362 34.81-34.081 66.812l16.275 141.219c1.616 13.975 12.759 24.973 26.794 24.264 14.035-.68 23.647-12.727 24.27-26.787l4.764-107.856" style="stroke-width:20;stroke-linecap:round;stroke-linejoin:round;stroke-miterlimit:10;stroke-dasharray:none;stroke-opacity:1" transform="translate(96.36 71.68)" fill="none" stroke="#0ca37a" stroke-width="20" stroke-linecap="round" stroke-linejoin="round" stroke-miterlimit="10" stroke-dasharray="none" stroke-opacity="" data-original="#0ca37a" class=""></path><path d="M0 0v83.025c0 29.423-18.6 51.958-39.894 73.048l-26.312 26.05c-10.349 10.261-27.19 10.204-37.426-.114-10.264-10.318-10.207-27.127.113-37.416l40.347-40.252" style="stroke-width:20;stroke-linecap:round;stroke-linejoin:round;stroke-miterlimit:10;stroke-dasharray:none;stroke-opacity:1" transform="translate(198.432 71.68)" fill="none" stroke="#0ca37a" stroke-width="20" stroke-linecap="round" stroke-linejoin="round" stroke-miterlimit="10" stroke-dasharray="none" stroke-opacity="" data-original="#0ca37a" class=""></path><path d="M0 0c34.506 0 62.632 28.119 62.632 62.616 0 34.469-28.126 62.588-62.632 62.588-34.478 0-62.604-28.119-62.604-62.588C-62.604 28.119-34.478 0 0 0Z" style="stroke-width:20;stroke-linecap:round;stroke-linejoin:round;stroke-miterlimit:10;stroke-dasharray:none;stroke-opacity:1" transform="translate(255.99 376.796)" fill="none" stroke="#0ca37a" stroke-width="20" stroke-linecap="round" stroke-linejoin="round" stroke-miterlimit="10" stroke-dasharray="none" stroke-opacity="" data-original="#0ca37a" class=""></path><path d="M0 0h-23.732c-9.753 0-17.721 7.965-17.721 17.716v39.202c0 27.496 16.814 51.278 40.687 61.511m91.355 0c23.874-10.233 40.687-34.015 40.687-61.511V17.716c0-9.751-7.967-17.716-17.72-17.716H89.824" style="stroke-width:20;stroke-linecap:round;stroke-linejoin:round;stroke-miterlimit:10;stroke-dasharray:none;stroke-opacity:1" transform="translate(211.078 278.152)" fill="none" stroke="#0ca37a" stroke-width="20" stroke-linecap="round" stroke-linejoin="round" stroke-miterlimit="10" stroke-dasharray="none" stroke-opacity="" data-original="#0ca37a" class=""></path><path d="M0 0h-.057" style="stroke-width:20;stroke-linecap:round;stroke-linejoin:round;stroke-miterlimit:10;stroke-dasharray:none;stroke-opacity:1" transform="translate(256.046 278.152)" fill="none" stroke="#0ca37a" stroke-width="20" stroke-linecap="round" stroke-linejoin="round" stroke-miterlimit="10" stroke-dasharray="none" stroke-opacity="" data-original="#0ca37a" class=""></path></g></g></svg>