<svg xmlns="http://www.w3.org/2000/svg" version="1.1" xmlns:xlink="http://www.w3.org/1999/xlink" width="512" height="512" x="0" y="0" viewBox="0 0 512 512" style="enable-background:new 0 0 512 512" xml:space="preserve" class=""><g><path d="M181.082 295.599c-7.811 7.809-7.811 20.473 0 28.284s20.474 7.809 28.284-.001l53.74-53.74c7.87-7.869 7.711-20.573 0-28.284l-53.741-53.74c-7.81-7.811-20.473-7.81-28.284 0s-7.811 20.474 0 28.285L200.679 236 35 235.999c-11.045 0-20 8.954-20 20s8.954 20 20 20l165.68.001-19.598 19.599z" fill="#fff" opacity="1" data-original="#fff" class=""></path><path d="M477 0H151c-11.046 0-20 8.954-20 20v76c0 11.046 8.954 20 20 20s20-8.954 20-20V40h286v432H171v-56c0-11.046-8.954-20-20-20s-20 8.954-20 20v76c0 11.046 8.954 20 20 20h326c11.046 0 20-8.954 20-20V20c0-11.046-8.954-20-20-20z" fill="#fff" opacity="1" data-original="#fff" class=""></path></g></svg>