<svg xmlns="http://www.w3.org/2000/svg" version="1.1" xmlns:xlink="http://www.w3.org/1999/xlink" width="512" height="512" x="0" y="0" viewBox="0 0 60 60" style="enable-background:new 0 0 512 512" xml:space="preserve" class=""><g><path d="M57 20h-1.06c-.619-8.908-9.387-16-20.107-16h-1.017A2.966 2.966 0 0 0 35 3a3 3 0 0 0-6 0 2.966 2.966 0 0 0 .184 1h-1.017C17.447 4 8.679 11.092 8.06 20H7a3 3 0 0 0 0 6h11.1a2.644 2.644 0 0 0-.095.67V30a13.358 13.358 0 0 1-2.029 7.869 98.087 98.087 0 0 0-.865 1.683 21.1 21.1 0 0 0-1.7 4.637 3.027 3.027 0 0 0-3.5.461c-4.358 4.158-6.93 5.59-8.076 6.075A2.985 2.985 0 0 0 0 53.483V57a3 3 0 0 0 3 3h14.3a3 3 0 0 0 1.874-.657l2.706-2.166a2.97 2.97 0 0 0 .428-4.241 28.35 28.35 0 0 1 7.492-5.742 4.924 4.924 0 0 0 1.516-1.174 55.332 55.332 0 0 1 8.945-8.32 4.946 4.946 0 0 0 1.971-3.137c1.007-5.3 3.405-7.878 4.142-8.566H57a3 3 0 0 0 0-6ZM31 3a1 1 0 1 1 1 1 1 1 0 0 1-1-1Zm-2.833 3h7.666c9.609 0 17.478 6.2 18.106 14H10.061c.628-7.8 8.497-14 18.106-14ZM20.63 55.614l-2.707 2.167A1 1 0 0 1 17.3 58H3a1 1 0 0 1-1-1v-3.517a.99.99 0 0 1 .605-.916c1.553-.656 4.319-2.31 8.677-6.468a1.019 1.019 0 0 1 .705-.281.987.987 0 0 1 .7.287l8.024 8.023a1 1 0 0 1-.083 1.487Zm19.638-21.42a2.966 2.966 0 0 1-1.175 1.886 57.3 57.3 0 0 0-9.287 8.62 2.947 2.947 0 0 1-.9.7 30.4 30.4 0 0 0-7.989 6.1l-5.776-5.776a18.242 18.242 0 0 1 1.759-5.277c.306-.613.589-1.156.849-1.653A15.224 15.224 0 0 0 20 30v-3.33a.671.671 0 0 1 .67-.67 2.04 2.04 0 0 1 1.271.447 1.927 1.927 0 0 1 .689 1.129A18.106 18.106 0 0 1 23 31a31.778 31.778 0 0 1-.38 4.221A4.208 4.208 0 0 0 26.79 40a4.246 4.246 0 0 0 2.779-1.038l6.33-5.55a4.937 4.937 0 0 0 1.349-1.912c1.181-2.935 2.639-4.971 3.93-5.5H43.7a19.344 19.344 0 0 0-3.432 8.194ZM35.939 26h2.145a18.454 18.454 0 0 0-2.695 4.766 2.915 2.915 0 0 1-.808 1.142l-2.166 1.9c.216-.832.413-1.7.571-2.642A8.661 8.661 0 0 1 35.939 26Zm-4.925 4.834a21.964 21.964 0 0 1-1.623 5.624l-1.135 1a2.287 2.287 0 0 1-3.138-.217A2.179 2.179 0 0 1 24.6 35.5 33.441 33.441 0 0 0 25 31a20.2 20.2 0 0 0-.409-3.817A3.9 3.9 0 0 0 24.136 26h9.054a10.516 10.516 0 0 0-2.176 4.834ZM57 24H7a1 1 0 0 1 0-2h50a1 1 0 0 1 0 2Z" fill="#13994d" opacity="1" data-original="#13994d" class=""></path><path d="M27.991 8c-6.636.057-12.481 3.306-14.89 8.276a1 1 0 1 0 1.8.873c2.05-4.226 7.318-7.1 13.11-7.149A1 1 0 0 0 29 8.992 1.012 1.012 0 0 0 27.991 8Z" fill="#13994d" opacity="1" data-original="#13994d" class=""></path></g></svg>