<svg xmlns="http://www.w3.org/2000/svg" version="1.1" xmlns:xlink="http://www.w3.org/1999/xlink" width="512" height="512" x="0" y="0" viewBox="0 0 512 512" style="enable-background:new 0 0 512 512" xml:space="preserve" class="hovered-paths"><g><path d="M466.421 110.111c-3.152-4.535-9.384-5.657-13.919-2.504-4.535 3.152-5.656 9.383-2.505 13.918 65.153 93.75 53.75 220.486-27.115 301.352-92.016 92.018-241.739 92.018-333.756 0-44.575-44.574-69.123-103.84-69.123-166.878S44.549 133.695 89.125 89.12c81.523-81.522 208.91-92.474 302.894-26.034 4.511 3.188 10.75 2.116 13.938-2.393 3.188-4.51 2.116-10.75-2.394-13.938C354.863 12.328 295.117-3.983 235.348.827c-60.462 4.866-117.415 31.2-160.367 74.151C26.629 123.33.001 187.618.001 255.999S26.63 388.666 74.981 437.02C123.334 485.372 187.622 512 256.002 512s132.668-26.629 181.021-74.98c42.699-42.7 69.005-99.307 74.07-159.391 5.007-59.372-10.859-118.863-44.672-167.518z" fill="#13994d" opacity="1" data-original="#13994d" class="hovered-path"></path><path d="m437.127 75.081-.189-.19c-3.899-3.91-10.232-3.918-14.142-.018-3.911 3.9-3.919 10.232-.019 14.142l.189.19a9.97 9.97 0 0 0 7.08 2.938c2.555 0 5.11-.973 7.062-2.92 3.911-3.899 3.919-10.231.019-14.142zM376.576 165.601h-85.081c-9.609 0-17.428-7.818-17.428-17.428 0-5.523-4.478-10-10-10s-10 4.477-10 10c0 20.638 16.79 37.428 37.428 37.428h85.081c9.609 0 17.428 7.818 17.428 17.428v4.635c0 5.523 4.477 10 10 10 5.522 0 10-4.477 10-10v-4.635c0-20.638-16.79-37.428-37.428-37.428zM385.085 404.878 107.122 126.916a10.002 10.002 0 0 0-14.94.899c-64.785 82.595-57.588 200.933 16.741 275.262 40.358 40.358 93.688 60.924 147.228 60.924 45.066 0 90.284-14.574 128.034-44.183a10 10 0 0 0 .9-14.94zm-196.103-156.88h10.938l36 36h-46.938v-36zm67.161 196.009c-48.389-.002-96.6-18.593-133.077-55.071-64.492-64.492-73.076-165.631-21.868-239.658l78.721 78.721h-71.917c-5.522 0-10 4.477-10 10v56c0 5.523 4.478 10 10 10H255.92l106.804 106.804c-32.156 22.244-69.42 33.206-106.581 33.204zm-87.161-196.008v36h-50.979v-36h50.979zM199.543 151.457a10.06 10.06 0 0 0-7.07-2.93c-2.63 0-5.21 1.07-7.07 2.93-1.859 1.86-2.93 4.44-2.93 7.07s1.07 5.21 2.93 7.07c1.86 1.86 4.44 2.93 7.07 2.93s5.209-1.069 7.07-2.93c1.859-1.86 2.93-4.44 2.93-7.07s-1.07-5.21-2.93-7.07z" fill="#13994d" opacity="1" data-original="#13994d" class="hovered-path"></path><path d="M403.083 108.92c-74.33-74.33-192.666-81.527-275.262-16.741a10 10 0 0 0-.9 14.939l35.104 35.104c3.906 3.906 10.236 3.906 14.143 0 3.905-3.905 3.905-10.237 0-14.142l-26.886-26.886c74.028-51.208 175.167-42.624 239.657 21.868 64.492 64.492 73.076 165.631 21.868 239.658l-58.721-58.721h51.917c5.522 0 10-4.477 10-10v-56c0-5.523-4.478-10-10-10H276.336c-.08 0-.158.01-.238.012l-52.678-52.679c-3.904-3.905-10.236-3.905-14.143 0-3.905 3.905-3.905 10.237 0 14.142L404.883 385.08a10 10 0 0 0 14.941-.899c64.786-82.595 57.589-200.933-16.741-275.261zm-30.099 139.079h21.02v36h-21.02v-36zm-76.898 0h56.897v36h-20.897l-36-36z" fill="#13994d" opacity="1" data-original="#13994d" class="hovered-path"></path></g></svg>