<svg xmlns="http://www.w3.org/2000/svg" version="1.1" xmlns:xlink="http://www.w3.org/1999/xlink" width="512" height="512" x="0" y="0" viewBox="0 0 100 100" style="enable-background:new 0 0 512 512" xml:space="preserve" class=""><g><path fill="#4ec300" d="M94.81 68.86 82.63 86.08c-.45.58-1.03.96-1.74 1.08-.68.11-1.36-.05-1.94-.45L63.16 75.52v19.35c0 1.46-1.15 2.63-2.62 2.63h-21.1c-1.47 0-2.65-1.19-2.65-2.63V75.52L21.03 86.71c-1.19.84-2.86.56-3.68-.63L5.17 68.86c-.86-1.18-.58-2.84.61-3.68L27.15 50 5.78 34.83a2.632 2.632 0 0 1-.61-3.69l12.18-17.22c.82-1.17 2.49-1.47 3.68-.61L36.8 24.48V5.15c0-1.48 1.19-2.65 2.65-2.65h21.11c1.47 0 2.62 1.19 2.62 2.65V24.5l15.79-11.19c.57-.42 1.25-.56 1.93-.44.72.11 1.31.49 1.75 1.05l12.2 17.22c.82 1.2.57 2.84-.61 3.69L72.82 50l21.4 15.18c1.19.84 1.43 2.5.59 3.68z" opacity="1" data-original="#4ec300"></path></g></svg>