<svg xmlns="http://www.w3.org/2000/svg" version="1.1" xmlns:xlink="http://www.w3.org/1999/xlink" width="512" height="512" x="0" y="0" viewBox="0 0 64 64" style="enable-background:new 0 0 512 512" xml:space="preserve" class=""><g><path d="M40.444 17.124a17.925 17.925 0 1 0 17.925 17.925 17.945 17.945 0 0 0-17.925-17.925zm1 33.8v-3.34h-2v3.339A15.923 15.923 0 0 1 24.57 36.049h3.338v-2H24.57a15.923 15.923 0 0 1 14.874-14.875v3.338h2v-3.338a15.922 15.922 0 0 1 14.874 14.875h-3.339v2h3.339a15.921 15.921 0 0 1-14.874 14.874z" fill="#0ca37a" opacity="1" data-original="#0ca37a"></path><path d="m53.855 16.172 1.008-1.46 1.69 1.167a1 1 0 0 0 1.391-.255l2.069-3a1 1 0 0 0-.255-1.392l-5.026-3.466a1 1 0 0 0-1.391.255l-2.069 3a1 1 0 0 0 .255 1.392l1.69 1.166-1.04 1.506a23 23 0 0 0-7.759-2.854V9.289h3.455a1 1 0 0 0 1-1v-4.6a1 1 0 0 0-1-1H33.016a1 1 0 0 0-1 1v4.6a1 1 0 0 0 1 1h3.455v2.938c-.594.1-1.182.223-1.759.37H7.5a1 1 0 0 0-.855 1.518l3.714 6.134a1 1 0 0 0 .856.482h7.571v-2h-7.008L9.274 14.6h20.3a23.306 23.306 0 0 0-10.615 11.79H3.09v2h15.164A23.148 23.148 0 0 0 29.569 55.5H13.637l-2.5-4.135h8.885v-2H9.358a1 1 0 0 0-.858 1.518l3.715 6.134a1 1 0 0 0 .855.483h21.642a23.161 23.161 0 0 0 19.143-41.328zm.564-6.191 3.38 2.334-.933 1.35-3.38-2.334zm-20.4-5.29h12.854v2.6H34.016zm4.455 4.6h3.947v2.68c-.651-.056-1.308-.09-1.974-.09s-1.322.034-1.973.09zm1.973 46.929a21.17 21.17 0 1 1 21.17-21.169 21.194 21.194 0 0 1-21.173 21.167z" fill="#0ca37a" opacity="1" data-original="#0ca37a"></path><path d="M44.422 35.049a3.978 3.978 0 1 0-3.978 3.977 3.936 3.936 0 0 0 2.472-.886l6.09 4.545 1.2-1.6-6.077-4.535a3.959 3.959 0 0 0 .293-1.501zm-3.978 1.977a1.978 1.978 0 1 1 1.978-1.977 1.979 1.979 0 0 1-1.978 1.977zM.875 34.049h11.5v2H.875zM3.09 41.707h11.856v2H3.09z" fill="#0ca37a" opacity="1" data-original="#0ca37a"></path></g></svg>