<svg xmlns="http://www.w3.org/2000/svg" version="1.1" xmlns:xlink="http://www.w3.org/1999/xlink" width="512" height="512" x="0" y="0" viewBox="0 0 76 76" style="enable-background:new 0 0 512 512" xml:space="preserve" class=""><g><path d="M74 40.49c-.69-1.36-6.47-2.68-10.51-2.92 1.41-8.91-1.51-16-2-16.43a.65.65 0 0 0-.16-.13c-.74-.48-7 .79-12.72 4.41a31.86 31.86 0 0 0-10.36-13.58 1.06 1.06 0 0 0-.5 0 31.86 31.86 0 0 0-10.34 13.58c-5.72-3.62-12-4.89-12.72-4.41a.65.65 0 0 0-.16.13c-.44.42-3.36 7.52-1.95 16.43-4 .24-9.82 1.56-10.51 2.92H2a.71.71 0 0 0 0 .12.77.77 0 0 0 0 .15 26.86 26.86 0 0 0 13.16 20.11 25.37 25.37 0 0 0 12.68 3.34 28.8 28.8 0 0 0 8.75-1.39l1 .18a2.3 2.3 0 0 0 .74 0l1-.18a28.8 28.8 0 0 0 8.75 1.39 25.37 25.37 0 0 0 12.68-3.34A26.86 26.86 0 0 0 74 40.76a.77.77 0 0 0 0-.15.71.71 0 0 0 0-.12ZM60.13 23A28.87 28.87 0 0 1 58 47a29.34 29.34 0 0 1-16.48 13.23 32.3 32.3 0 0 0 9.4-22.77 32 32 0 0 0-1.62-10.12A30 30 0 0 1 60.13 23ZM38 14.08a30.9 30.9 0 0 1 10.92 23.38A30.93 30.93 0 0 1 38 60.85a30.93 30.93 0 0 1-10.92-23.39A30.9 30.9 0 0 1 38 14.08ZM15.87 23a30 30 0 0 1 10.83 4.34 32.32 32.32 0 0 0 7.78 32.89A29.34 29.34 0 0 1 18 47a28.87 28.87 0 0 1-2.13-24Zm.27 36.17C6.59 53.72 4.49 44 4.08 41.38A27.12 27.12 0 0 1 13 39.55 30 30 0 0 0 16.26 48a30.86 30.86 0 0 0 16.49 13.73 24.1 24.1 0 0 1-16.61-2.6Zm43.72 0a24.1 24.1 0 0 1-16.61 2.6A30.86 30.86 0 0 0 59.74 48 29.67 29.67 0 0 0 63 39.55a27.12 27.12 0 0 1 8.88 1.83c-.37 2.62-2.47 12.34-12.02 17.75Z" fill="#000000" opacity="1" data-original="#000000"></path></g></svg>