<svg xmlns="http://www.w3.org/2000/svg" version="1.1" xmlns:xlink="http://www.w3.org/1999/xlink" width="512" height="512" x="0" y="0" viewBox="0 0 60 60" style="enable-background:new 0 0 512 512" xml:space="preserve" class=""><g><path d="M58.191 35.115a.232.232 0 0 1 .006-.241l1.48-2.469A2.247 2.247 0 0 0 57.75 29H54v-3a3 3 0 0 0-2-2.816V7.588a2.965 2.965 0 0 0-2.47-2.982C46.517 4.213 36.286 2.737 31.124.252a2.648 2.648 0 0 0-2.258.005c-5.152 2.48-15.383 3.956-18.406 4.351A2.962 2.962 0 0 0 8 7.588v15.6A3 3 0 0 0 6 26v3H2.25a2.247 2.247 0 0 0-1.928 3.4l1.487 2.482a.232.232 0 0 1-.006.241L.323 37.6A2.247 2.247 0 0 0 2.25 41h6.373c3.114 12.311 17.148 17.753 20.241 18.811a3.491 3.491 0 0 0 2.272 0c3.093-1.058 17.127-6.5 20.241-18.811h6.373a2.247 2.247 0 0 0 1.928-3.4ZM10 7.588a.959.959 0 0 1 .729-1c3.958-.517 13.732-1.993 19-4.527a.634.634 0 0 1 .543 0C35.539 4.6 45.313 6.073 49.261 6.588a.961.961 0 0 1 .739 1V23h-2V10.169a1.99 1.99 0 0 0-1.7-1.978c-4.607-.7-11.045-1.917-15.556-3.737a1.959 1.959 0 0 0-1.48 0C24.783 6.269 18.328 7.488 13.7 8.191a1.991 1.991 0 0 0-1.7 1.978V23h-2Zm36 2.581V23H14V10.168c4.732-.719 11.352-1.972 15.99-3.86C34.685 8.2 41.285 9.453 46 10.169ZM2.25 39a.248.248 0 0 1-.213-.376l1.475-2.46a2.233 2.233 0 0 0 .006-2.317l-1.482-2.473A.248.248 0 0 1 2.25 31H6v3a2.994 2.994 0 0 0 2.028 2.824A20.563 20.563 0 0 0 8.219 39Zm28.239 18.918a1.5 1.5 0 0 1-.978 0C26.329 56.83 10.762 50.8 10.035 37h2c.695 11.579 13.322 17.233 17.27 18.718a2 2 0 0 0 .7.127 1.965 1.965 0 0 0 .694-.127C34.644 54.234 47.271 48.583 47.966 37h2c-.728 13.8-16.295 19.83-19.477 20.918ZM14.035 37h31.93c-.713 10.308-12.332 15.477-15.957 16.846C26.368 52.476 14.749 47.3 14.035 37ZM51 35H9a1 1 0 0 1-1-1v-8a1 1 0 0 1 1-1h42a1 1 0 0 1 1 1v8a1 1 0 0 1-1 1Zm6.967 3.873a.238.238 0 0 1-.217.127h-5.969a20.563 20.563 0 0 0 .191-2.176A2.994 2.994 0 0 0 54 34v-3h3.75a.248.248 0 0 1 .213.376l-1.475 2.46a2.233 2.233 0 0 0-.006 2.317l1.482 2.473a.236.236 0 0 1 .003.247Z" fill="#0ca37a" opacity="1" data-original="#0ca37a" class=""></path><path d="M25.707 17.293a1 1 0 0 0-1.414 1.414l2 2a1 1 0 0 0 1.414 0l8-8a1 1 0 0 0-1.414-1.414L27 18.586ZM38 27H22a1 1 0 0 0 0 2h16a1 1 0 0 0 0-2ZM35 31H25a1 1 0 0 0 0 2h10a1 1 0 0 0 0-2Z" fill="#0ca37a" opacity="1" data-original="#0ca37a" class=""></path></g></svg>