<svg xmlns="http://www.w3.org/2000/svg" version="1.1" xmlns:xlink="http://www.w3.org/1999/xlink" width="512" height="512" x="0" y="0" viewBox="0 0 64 64" style="enable-background:new 0 0 512 512" xml:space="preserve" class=""><g><path d="M26 31a1 1 0 0 1-1-1 15.202 15.202 0 0 1 1.872-7.001 1 1 0 0 1 1.775.922A13.23 13.23 0 0 0 27 30a1 1 0 0 1-1 1ZM17.001 35.265a1 1 0 0 1-.885-.532 25.613 25.613 0 0 1-2.314-6.52 1 1 0 1 1 1.953-.427 23.62 23.62 0 0 0 2.129 6.01A1 1 0 0 1 17 35.264Z" fill="#ddd" opacity="1" data-original="#ddd"></path><circle cx="14" cy="24" r="1" fill="#ddd" opacity="1" data-original="#ddd"></circle><circle cx="30" cy="20" r="1" fill="#ddd" opacity="1" data-original="#ddd"></circle><path d="M60.787 41.384a34.351 34.351 0 0 0-8.226-7.224 36.541 36.541 0 0 0 2.417-14.214.998.998 0 0 0-.942-.944 36.773 36.773 0 0 0-13.369 2.124 34.188 34.188 0 0 0-8.04-9.904 1.002 1.002 0 0 0-1.255 0 34.188 34.188 0 0 0-8.04 9.904 36.767 36.767 0 0 0-13.368-2.124.998.998 0 0 0-.942.943 36.539 36.539 0 0 0 2.417 14.215 34.349 34.349 0 0 0-8.226 7.224.997.997 0 0 0 0 1.233C3.545 43.04 11.458 53 21.5 53c4.053 0 7.688-1.96 10.5-3.804C34.812 51.04 38.447 53 42.5 53c10.042 0 17.955-9.96 18.287-10.384a.997.997 0 0 0 0-1.232Zm-7.79-20.4c-.015 3.085-.556 13.135-6.704 19.3a24.778 24.778 0 0 1-11.035 6.024C38.335 43.092 43 37.055 43 30a18.446 18.446 0 0 0-1.492-7.059 35.57 35.57 0 0 1 11.488-1.958ZM32 13.325c2.139 1.933 9 8.754 9 16.675s-6.861 14.742-9 16.675C29.861 44.742 23 37.92 23 30s6.861-14.742 9-16.675Zm-9.508 9.616A18.446 18.446 0 0 0 21 30c0 7.055 4.665 13.092 7.742 16.308a24.775 24.775 0 0 1-11.034-6.024c-6.15-6.165-6.69-16.216-6.704-19.3a35.57 35.57 0 0 1 11.488 1.957ZM5.308 42a33.295 33.295 0 0 1 6.964-5.993 21.653 21.653 0 0 0 4.021 5.691 26.994 26.994 0 0 0 13.018 6.82A15.87 15.87 0 0 1 21.5 51c-7.7 0-14.33-6.878-16.192-9.001ZM42.5 51a15.87 15.87 0 0 1-7.81-2.482 26.997 26.997 0 0 0 13.018-6.822 21.65 21.65 0 0 0 4.02-5.69A33.384 33.384 0 0 1 58.693 42c-1.859 2.124-8.477 9-16.192 9Z" fill="#ddd" opacity="1" data-original="#ddd"></path></g></svg>