<svg xmlns="http://www.w3.org/2000/svg" version="1.1" xmlns:xlink="http://www.w3.org/1999/xlink" width="512" height="512" x="0" y="0" viewBox="0 0 512 512" style="enable-background:new 0 0 512 512" xml:space="preserve" class=""><g><ellipse cx="383.462" cy="79.781" rx="39.276" ry="33.081" style="stroke-width:15;stroke-linecap:round;stroke-linejoin:round;stroke-miterlimit:10;" transform="rotate(-58.347 383.445 79.774)" fill="none" stroke="#13994d" stroke-width="15" stroke-linecap="round" stroke-linejoin="round" stroke-miterlimit="10" data-original="#13994d"></ellipse><path d="m362.848 113.22-44.86 72.77M428.018 7.5l-23.95 38.85M376.312 194.421a155.556 155.556 0 0 1-70.724-13.327v0a155.553 155.553 0 0 0-101.007-8.882l-23.903 5.958c-11.019 2.746-15.077 16.288-7.384 24.642l87.3 94.804c14.937 16.221 40.544 16.221 55.481 0l71.943-78.126c9.056-9.833 1.647-25.699-11.706-25.069h0z" style="stroke-width:15;stroke-linecap:round;stroke-linejoin:round;stroke-miterlimit:10;" fill="none" stroke="#13994d" stroke-width="15" stroke-linecap="round" stroke-linejoin="round" stroke-miterlimit="10" data-original="#13994d"></path><path d="m429.734 174.189-41.695 45.281-64.93 70.51c-.05.05-.09.1-.13.15a51.252 51.252 0 0 0-13.42 34.57v134.94M411.448 97.41h62.62c10.07 0 15.33 11.99 8.5 19.4l-30.198 32.795M267.118 459.64V324.7c0-12.79-4.79-25.13-13.42-34.57-.04-.05-.08-.1-.13-.15l-80.27-87.17-26.03-28.26-53.17-57.74c-6.82-7.41-1.57-19.4 8.51-19.4h247.88" style="stroke-width:15;stroke-linecap:round;stroke-linejoin:round;stroke-miterlimit:10;" fill="none" stroke="#13994d" stroke-width="15" stroke-linecap="round" stroke-linejoin="round" stroke-miterlimit="10" data-original="#13994d"></path><path d="M238.206 504.5h-25.499c-5.569 0-10.084-4.515-10.084-10.083v0c0-19.209 15.572-34.78 34.78-34.78h101.864c19.209 0 34.78 15.572 34.78 34.78v0c0 5.569-4.515 10.083-10.083 10.083H274.9M147.268 174.55c-12.26 7.97-26.89 12.6-42.6 12.6-43.26 0-78.32-35.07-78.32-78.33s35.06-78.32 78.32-78.32c39.38 0 71.97 29.06 77.49 66.91" style="stroke-width:15;stroke-linecap:round;stroke-linejoin:round;stroke-miterlimit:10;" fill="none" stroke="#13994d" stroke-width="15" stroke-linecap="round" stroke-linejoin="round" stroke-miterlimit="10" data-original="#13994d"></path></g></svg>