<svg xmlns="http://www.w3.org/2000/svg" version="1.1" xmlns:xlink="http://www.w3.org/1999/xlink" width="512" height="512" x="0" y="0" viewBox="0 0 16.933 16.933" style="enable-background:new 0 0 512 512" xml:space="preserve" class=""><g><path d="M12.699 1.322v6.35a.528.528 0 0 0-.528.529l-.001 2.383H1.588c-.592 0-1.059.477-1.059 1.059v2.644c0 .582.469 1.059 1.059 1.059h.264v.793c-.001.146.118.266.265.265H3.97c.146 0 .265-.12.264-.265v-.793H12.7v.793c0 .147.119.266.266.265h1.851a.265.265 0 0 0 .266-.265v-.793h.264c.592 0 1.058-.477 1.058-1.059v-2.644c0-.582-.466-1.06-1.058-1.06h-.53V8.202a.529.529 0 0 0-.528-.528l-.001-6.35a.794.794 0 0 0-1.588 0zm.795-.263c.144 0 .264.112.264.263v6.35h-.529v-6.35c0-.15.121-.263.265-.263zM5.97 3.52A6.798 6.798 0 0 0 1.135 5.55c-.258.241.139.634.377.371a6.265 6.265 0 0 1 4.457-1.87c1.672 0 3.276.673 4.459 1.87.24.264.632-.132.376-.371A6.801 6.801 0 0 0 5.97 3.521zm0 1.665a5.16 5.16 0 0 0-3.672 1.539c-.274.232.152.638.375.37a4.635 4.635 0 0 1 3.297-1.382c1.236 0 2.421.497 3.297 1.383.242.256.628-.125.377-.371a5.167 5.167 0 0 0-3.674-1.54zm0 1.662c-.943 0-1.844.377-2.51 1.05-.257.237.134.636.375.373a3 3 0 0 1 4.271 0c.246.26.63-.128.377-.373a3.534 3.534 0 0 0-2.513-1.05zM12.7 8.202h1.587v2.382h-1.588zm-6.731.308c-.507 0-.992.203-1.35.564-.26.252.128.636.377.373a1.365 1.365 0 0 1 1.947 0c.249.26.634-.123.375-.373a1.899 1.899 0 0 0-1.35-.564zm-4.381 2.604h13.758c.298 0 .529.235.529.529v2.644c0 .298-.239.53-.53.53H1.589a.525.525 0 0 1-.53-.53v-2.644c0-.294.232-.53.53-.53zm1.321.529a.792.792 0 1 0 0 1.586.794.794 0 1 0 0-1.586zm2.12 0c-.446 0-.796.357-.796.792s.355.794.796.794a.793.793 0 0 0 0-1.586zm2.116 0a.794.794 0 1 0-.004 1.587.794.794 0 0 0 .004-1.587zm-4.236.527c.141 0 .266.116.266.265a.265.265 0 0 1-.53 0c0-.149.123-.265.264-.265zm2.12 0c.142 0 .263.116.263.265s-.12.264-.263.264c-.143 0-.267-.114-.267-.264s.125-.265.267-.265zm2.116 0c.139 0 .263.116.263.265s-.12.264-.263.264c-.144 0-.266-.114-.266-.264s.127-.265.266-.265zm1.585 0c-.345 0-.345.529 0 .529h2.384c.345 0 .345-.53 0-.53zm3.573 0c-.346 0-.346.529 0 .529h.662c.345 0 .345-.53 0-.53zM2.38 15.346h1.323v.529H2.381zm10.848 0h1.323v.529H13.23z" fill="#0ca37a" opacity="1" data-original="#0ca37a" class=""></path></g></svg>